<svg data-v-fde0c5aa="" xmlns="http://www.w3.org/2000/svg" viewBox="0 0 300 300" class="iconAboveSlogan"><!----><defs data-v-fde0c5aa=""><!----></defs><rect data-v-fde0c5aa="" fill="transparent" x="0" y="0" width="300px" height="300px" class="logo-background-square"></rect><defs data-v-fde0c5aa=""><!----></defs><g data-v-fde0c5aa="" id="63b16b2f-5053-4548-8496-d15f19d5eaa0" fill="#fff" transform="matrix(3.3346161519882758,0,0,3.3346161519882758,16.732076107448734,141.2684520530345)"><path d="M4.90 5.75L4.90 5.75L3.92 5.75L3.92 10.54L6.86 10.54L6.86 11.17L3.92 11.17L3.92 14.43L5.46 14.43L5.46 14.99L0.98 14.99L0.98 14.43L1.82 14.43L1.82 5.75L0.98 5.75L0.98 5.19L6.99 5.19L6.99 5.19Q7.29 5.19 7.44 5.21L7.44 5.21L7.44 5.21Q7.59 5.24 7.71 5.37L7.71 5.37L7.71 5.37Q7.84 5.50 7.84 5.78L7.84 5.78L7.46 8.13L6.92 8.13L6.64 6.75L6.64 6.75Q6.51 6.12 6.17 5.94L6.17 5.94L6.17 5.94Q5.82 5.75 4.90 5.75ZM11.82 8.64L11.82 8.64L11.82 13.44L11.82 13.44Q11.82 13.87 12.08 14.11L12.08 14.11L12.08 14.11Q12.35 14.35 12.82 14.35L12.82 14.35L12.82 14.35Q13.30 14.35 13.75 13.96L13.75 13.96L13.75 13.96Q14.20 13.57 14.20 12.94L14.20 12.94L14.20 7.99L16.30 7.99L16.30 13.44L16.30 13.44Q16.30 13.82 16.48 14.04L16.48 14.04L16.48 14.04Q16.66 14.25 17.04 14.25L17.04 14.25L17.04 14.25Q17.42 14.25 17.91 13.85L17.91 13.85L18.16 14.18L18.16 14.18Q17.04 15.20 15.88 15.20L15.88 15.20L15.88 15.20Q14.71 15.20 14.34 14.17L14.34 14.17L14.34 14.17Q13.79 14.74 13.21 14.97L13.21 14.97L13.21 14.97Q12.63 15.20 11.73 15.20L11.73 15.20L11.73 15.20Q10.82 15.20 10.27 14.65L10.27 14.65L10.27 14.65Q9.72 14.10 9.72 13.15L9.72 13.15L9.72 8.46L9.72 8.46Q8.95 8.65 8.54 9.14L8.54 9.14L8.16 8.71L8.16 8.71Q8.57 8.29 9.19 8.04L9.19 8.04L9.19 8.04Q9.81 7.78 10.42 7.78L10.42 7.78L10.42 7.78Q11.03 7.78 11.42 8.03L11.42 8.03L11.42 8.03Q11.82 8.27 11.82 8.64ZM19.61 7.99L19.61 7.99L19.61 7.99Q20.76 7.99 21.69 8.69L21.69 8.69L21.69 8.69Q22.22 8.19 22.78 7.99L22.78 7.99L22.78 7.99Q23.34 7.78 24.21 7.78L24.21 7.78L24.21 7.78Q25.09 7.78 25.64 8.34L25.64 8.34L25.64 8.34Q26.19 8.89 26.19 9.84L26.19 9.84L26.19 13.44L26.19 13.44Q26.19 13.82 26.38 14.04L26.38 14.04L26.38 14.04Q26.56 14.25 26.94 14.25L26.94 14.25L26.94 14.25Q27.31 14.25 27.80 13.85L27.80 13.85L28.06 14.18L28.06 14.18Q26.94 15.20 25.82 15.20L25.82 15.20L25.82 15.20Q24.09 15.20 24.09 13.15L24.09 13.15L24.09 9.55L24.09 9.55Q24.09 9.11 23.83 8.88L23.83 8.88L23.83 8.88Q23.56 8.64 23.09 8.64L23.09 8.64L23.09 8.64Q22.62 8.64 22.17 9.02L22.17 9.02L22.17 9.02Q21.71 9.39 21.71 10.00L21.71 10.00L21.71 14.99L19.61 14.99L19.61 8.55L19.61 8.55Q18.98 8.55 18.49 8.76L18.49 8.76L18.30 8.25L18.30 8.25Q18.90 7.99 19.61 7.99ZM33.92 12.01L33.92 13.19L33.92 13.19Q33.92 13.73 34.45 14.14L34.45 14.14L34.45 14.14Q34.99 14.55 35.83 14.55L35.83 14.55L35.83 14.55Q36.67 14.55 37.16 14.14L37.16 14.14L37.16 14.14Q37.65 13.73 37.65 13.06L37.65 13.06L37.65 13.06Q37.65 12.21 36.62 11.65L36.62 11.65L34.55 10.54L34.55 10.54Q32.76 9.58 32.76 7.78L32.76 7.78L32.76 7.78Q32.76 6.64 33.60 5.81L33.60 5.81L33.60 5.81Q34.44 4.98 36.11 4.98L36.11 4.98L36.11 4.98Q37.23 4.98 38.23 5.43L38.23 5.43L38.23 5.43Q39.24 5.88 39.24 6.50L39.24 6.50L39.24 6.50Q39.24 6.73 39.09 7.04L39.09 7.04L38.42 8.33L37.93 8.18L37.93 7L37.93 7Q37.93 6.37 37.37 6.01L37.37 6.01L37.37 6.01Q36.82 5.64 36.06 5.64L36.06 5.64L36.06 5.64Q35.29 5.64 34.89 6.09L34.89 6.09L34.89 6.09Q34.48 6.54 34.48 7.11L34.48 7.11L34.48 7.11Q34.48 8.26 35.52 8.81L35.52 8.81L37.30 9.74L37.30 9.74Q39.33 10.81 39.33 12.54L39.33 12.54L39.33 12.54Q39.33 13.86 38.34 14.53L38.34 14.53L38.34 14.53Q37.35 15.20 35.84 15.20L35.84 15.20L35.84 15.20Q34.71 15.20 33.66 14.76L33.66 14.76L33.66 14.76Q32.61 14.31 32.61 13.69L32.61 13.69L32.61 13.69Q32.61 13.45 32.76 13.15L32.76 13.15L33.43 11.86L33.92 12.01ZM41.69 7.99L41.69 7.99L41.69 7.99Q42.98 7.99 43.92 8.71L43.92 8.71L43.92 8.71Q44.66 7.78 45.85 7.78L45.85 7.78L45.85 7.78Q47.46 7.78 48.30 8.83L48.30 8.83L48.30 8.83Q49.14 9.87 49.14 11.49L49.14 11.49L49.14 11.49Q49.14 13.10 48.24 14.15L48.24 14.15L48.24 14.15Q47.33 15.20 45.71 15.20L45.71 15.20L45.71 15.20Q44.51 15.20 43.79 14.13L43.79 14.13L43.79 18.49L41.69 18.49L41.69 8.55L41.69 8.55Q41.06 8.55 40.57 8.76L40.57 8.76L40.38 8.25L40.38 8.25Q40.98 7.99 41.69 7.99ZM46.58 13.62L46.58 13.62L46.58 13.62Q46.97 12.84 46.97 11.49L46.97 11.49L46.97 11.49Q46.97 10.15 46.58 9.37L46.58 9.37L46.58 9.37Q46.19 8.58 45.38 8.58L45.38 8.58L45.38 8.58Q44.58 8.58 44.15 9.37L44.15 9.37L44.15 9.37Q43.72 10.16 43.72 11.49L43.72 11.49L43.72 11.49Q43.72 12.82 44.15 13.62L44.15 13.62L44.15 13.62Q44.58 14.41 45.38 14.41L45.38 14.41L45.38 14.41Q46.19 14.41 46.58 13.62ZM51.99 14.13L51.99 14.13L51.99 14.13Q50.96 13.06 50.96 11.49L50.96 11.49L50.96 11.49Q50.96 9.93 51.99 8.86L51.99 8.86L51.99 8.86Q53.02 7.78 54.67 7.78L54.67 7.78L54.67 7.78Q56.32 7.78 57.35 8.86L57.35 8.86L57.35 8.86Q58.38 9.93 58.38 11.49L58.38 11.49L58.38 11.49Q58.38 13.06 57.35 14.13L57.35 14.13L57.35 14.13Q56.32 15.20 54.67 15.20L54.67 15.20L54.67 15.20Q53.02 15.20 51.99 14.13ZM53.52 9.25L53.52 9.25L53.52 9.25Q53.13 10.12 53.13 11.49L53.13 11.49L53.13 11.49Q53.13 12.87 53.52 13.74L53.52 13.74L53.52 13.74Q53.91 14.62 54.68 14.62L54.68 14.62L54.68 14.62Q55.45 14.62 55.85 13.74L55.85 13.74L55.85 13.74Q56.24 12.87 56.24 11.49L56.24 11.49L56.24 11.49Q56.24 10.12 55.85 9.25L55.85 9.25L55.85 9.25Q55.45 8.37 54.68 8.37L54.68 8.37L54.68 8.37Q53.91 8.37 53.52 9.25ZM64.79 7.78L64.79 7.78L64.79 7.78Q65.21 7.78 65.21 8.58L65.21 8.58L65.21 13.44L65.21 13.44Q65.21 13.82 65.39 14.04L65.39 14.04L65.39 14.04Q65.58 14.25 65.95 14.25L65.95 14.25L65.95 14.25Q66.33 14.25 66.82 13.85L66.82 13.85L67.07 14.18L67.07 14.18Q65.95 15.20 64.83 15.20L64.83 15.20L64.83 15.20Q63.11 15.20 63.11 13.15L63.11 13.15L63.11 9.21L63.11 9.21Q62.45 9.48 61.52 9.58L61.52 9.58L61.52 9.58Q61.40 10.86 60.77 12.15L60.77 12.15L60.20 11.98L60.20 11.98Q60.59 10.99 60.62 9.62L60.62 9.62L60.62 9.62Q60.09 9.62 59.76 9.31L59.76 9.31L59.76 9.31Q59.43 9.00 59.43 8.55L59.43 8.55L59.43 8.55Q59.43 8.09 59.75 7.78L59.75 7.78L59.75 7.78Q60.06 7.46 60.52 7.46L60.52 7.46L60.52 7.46Q60.97 7.46 61.28 7.78L61.28 7.78L61.28 7.78Q61.59 8.11 61.59 8.61L61.59 8.61L61.85 8.61L61.85 8.61Q62.96 8.61 64.20 7.99L64.20 7.99L64.20 7.99Q64.61 7.78 64.79 7.78ZM68.49 8.76L67.34 8.76L67.34 8.19L68.49 8.19L68.49 6.17L70.59 6.17L70.59 8.19L72.17 8.19L72.17 8.76L70.59 8.76L70.59 13.44L70.59 13.44Q70.59 13.82 70.77 14.04L70.77 14.04L70.77 14.04Q70.95 14.25 71.33 14.25L71.33 14.25L71.33 14.25Q71.71 14.25 72.20 13.85L72.20 13.85L72.45 14.18L72.45 14.18Q71.33 15.20 70.21 15.20L70.21 15.20L70.21 15.20Q68.49 15.20 68.49 13.15L68.49 13.15L68.49 8.76ZM75.18 9.14L75.18 9.14L75.18 9.14Q74.84 8.62 74.84 8.22L74.84 8.22L74.84 8.22Q74.84 7.81 75.16 7.50L75.16 7.50L75.16 7.50Q75.47 7.18 75.92 7.18L75.92 7.18L75.92 7.18Q76.37 7.18 76.69 7.50L76.69 7.50L76.69 7.50Q77.00 7.81 77.00 8.25L77.00 8.25L77.00 8.25Q77.00 8.68 76.57 9.17L76.57 9.17L76.57 9.17Q77.71 10.01 78.33 10.81L78.33 10.81L78.33 10.81Q78.95 11.62 78.95 12.68L78.95 12.68L78.95 12.68Q78.95 13.73 78.15 14.47L78.15 14.47L78.15 14.47Q77.35 15.20 75.88 15.20L75.88 15.20L75.88 15.20Q75.21 15.20 74.53 14.91L74.53 14.91L74.53 14.91Q73.85 14.62 73.50 14.18L73.50 14.18L73.82 13.85L73.82 13.85Q74.44 14.34 75.15 14.34L75.15 14.34L75.15 14.34Q75.87 14.34 76.32 13.95L76.32 13.95L76.32 13.95Q76.78 13.57 76.78 12.75L76.78 12.75L76.78 12.75Q76.78 11.47 75.82 10.07L75.82 10.07L73.71 12.71L73.36 12.40L73.36 12.40Q74.42 10.68 75.18 9.14Z"></path></g><defs data-v-fde0c5aa=""><linearGradient data-v-fde0c5aa="" gradientTransform="rotate(25)" id="43aada48-8c77-4fcd-85a7-498d60bb8d6e" x1="0%" y1="0%" x2="100%" y2="0%"><stop data-v-fde0c5aa="" offset="0%" stop-color="#D0A070" stop-opacity="1"></stop><stop data-v-fde0c5aa="" offset="100%" stop-color="#6BE371" stop-opacity="1"></stop></linearGradient></defs><g data-v-fde0c5aa="" id="6c2035f5-a07e-4b24-b76b-5630f2eee744" stroke="none" fill="url(#43aada48-8c77-4fcd-85a7-498d60bb8d6e)" transform="matrix(1.0499212494309278,0,0,1.0499212494309278,97.56325052536805,60.662130414531305)"><path d="M84.494 32.769c-6.481-1.252-13.045-.589-18.771 2.029a30.68 30.68 0 0 1 1.063 7.998c0 9.552-4.4 18.414-12.171 24.791 8.304.499 16.402-2.143 22.343-8.083 6.984-6.985 9.427-16.958 7.536-26.735z"></path><path d="M86.757 49.471c-1.496 4.631-4.017 8.841-7.516 12.338-5.86 5.86-13.905 9.107-22.653 9.107h-.001c-.388 0-.78-.013-1.172-.03 6.388 3.98 13.913 5.579 21.388 3.896 9.637-2.168 17.033-9.289 20.663-18.562-3.168-2.981-6.81-5.282-10.709-6.749zM43.299 70.916c-8.748 0-16.793-3.247-22.654-9.108-3.498-3.498-6.021-7.706-7.517-12.336-3.899 1.467-7.54 3.768-10.707 6.749 3.63 9.272 11.026 16.394 20.663 18.562 7.475 1.683 15 .084 21.386-3.896-.392.017-.783.029-1.171.029z"></path><path d="M33.174 42.795c0-2.727.362-5.396 1.054-7.969-5.742-2.642-12.33-3.315-18.837-2.058-1.89 9.777.553 19.75 7.538 26.734 5.957 5.957 14.084 8.599 22.411 8.079-7.767-6.375-12.166-15.235-12.166-24.786z"></path><path d="M36.406 42.795c0 9.878 5.324 18.657 13.574 24.235 8.25-5.578 13.574-14.356 13.574-24.235S58.23 24.138 49.98 18.561c-8.25 5.578-13.574 14.355-13.574 24.234z"></path></g><defs data-v-fde0c5aa=""><!----></defs><g data-v-fde0c5aa="" id="0734fed4-9d49-45ef-9e53-ee88d4e57763" fill="#fff000" transform="matrix(0.6829166316645386,0,0,0.6829166316645386,52.02195836597583,210.33725152217616)"><path d="M10.43 4.44C10.61 4.42 10.71 4.34 10.71 4.19L10.71 3.92L9.53 3.92L8.81 3.92L7.63 3.92L7.63 4.19C7.63 4.34 7.73 4.42 7.91 4.44L8.04 4.44C8.11 4.44 8.22 4.45 8.36 4.45C8.50 4.45 8.64 4.47 8.81 4.47L8.81 8.53L2.60 8.53L2.60 4.47C2.77 4.47 2.93 4.45 3.07 4.45C3.21 4.45 3.30 4.44 3.37 4.44L3.51 4.44C3.70 4.42 3.78 4.34 3.78 4.19L3.78 3.92L2.60 3.92L1.89 3.92L0.70 3.92L0.70 4.19C0.70 4.34 0.80 4.42 0.98 4.44L1.12 4.44C1.19 4.44 1.29 4.45 1.43 4.45C1.57 4.45 1.72 4.47 1.89 4.47L1.89 13.26C1.72 13.26 1.57 13.27 1.43 13.27C1.29 13.27 1.19 13.29 1.12 13.29L0.98 13.29C0.80 13.30 0.70 13.38 0.70 13.54L0.70 13.82L1.89 13.82L2.60 13.82L3.78 13.82L3.78 13.54C3.78 13.38 3.70 13.30 3.51 13.29L3.37 13.29C3.30 13.29 3.21 13.27 3.07 13.27C2.93 13.27 2.77 13.26 2.60 13.26L2.60 9.07L8.81 9.07L8.81 13.26C8.64 13.26 8.50 13.27 8.36 13.27C8.22 13.27 8.11 13.29 8.04 13.29L7.91 13.29C7.73 13.30 7.63 13.38 7.63 13.54L7.63 13.82L8.81 13.82L9.53 13.82L10.71 13.82L10.71 13.54C10.71 13.38 10.61 13.30 10.43 13.29L10.30 13.29C10.23 13.29 10.12 13.27 9.98 13.27C9.84 13.27 9.70 13.26 9.53 13.26L9.53 4.47C9.70 4.47 9.84 4.45 9.98 4.45C10.12 4.45 10.23 4.44 10.30 4.44ZM28.35 13.22L27.89 13.17L24.11 3.91L23.39 3.91L19.60 13.17L19.15 13.22C18.97 13.23 18.89 13.33 18.89 13.50L18.89 13.82L19.33 13.82L19.63 13.82L19.88 13.82L19.98 13.82L21.29 13.82L21.29 13.50C21.29 13.31 21.18 13.23 20.97 13.22C20.96 13.22 20.93 13.20 20.89 13.20C20.85 13.20 20.79 13.19 20.69 13.19C20.59 13.19 20.47 13.19 20.33 13.17L21.31 10.75L21.38 10.57L26.11 10.57L26.18 10.75L27.16 13.17C27.02 13.19 26.91 13.19 26.81 13.19C26.71 13.19 26.64 13.20 26.60 13.20C26.56 13.20 26.53 13.22 26.52 13.22C26.31 13.23 26.19 13.31 26.19 13.50L26.19 13.82L27.51 13.82L27.61 13.82L27.87 13.82L28.15 13.82L28.62 13.82L28.62 13.50C28.62 13.33 28.53 13.23 28.35 13.22ZM23.55 5.22C23.58 5.14 23.62 5.04 23.65 4.94C23.67 4.84 23.72 4.75 23.74 4.63C23.77 4.75 23.81 4.84 23.84 4.94C23.87 5.04 23.91 5.12 23.94 5.21L25.90 10.04L21.60 10.04ZM43.36 3.92L42.80 3.92L42.77 3.92L41.30 3.92L41.30 4.19C41.30 4.34 41.38 4.42 41.57 4.44L41.69 4.44C41.75 4.44 41.83 4.45 41.96 4.45C42.08 4.45 42.22 4.47 42.38 4.47L39.17 12.32C39.09 12.53 39.02 12.75 38.96 13.01C38.91 12.77 38.84 12.53 38.75 12.32L35.52 4.47C35.67 4.47 35.83 4.45 35.95 4.45C36.08 4.45 36.16 4.44 36.22 4.44L36.33 4.44C36.51 4.42 36.61 4.34 36.61 4.19L36.61 3.92L35.11 3.92L34.55 3.92L33.95 3.92L33.95 4.19C33.95 4.34 34.05 4.42 34.23 4.44L34.33 4.44C34.37 4.44 34.44 4.45 34.51 4.45C34.58 4.45 34.68 4.47 34.78 4.47L38.64 13.82L39.27 13.82L43.13 4.47C43.23 4.47 43.33 4.45 43.40 4.45C43.47 4.45 43.54 4.44 43.58 4.44L43.67 4.44C43.85 4.42 43.95 4.34 43.95 4.19L43.95 3.92ZM69.50 3.92L69.15 3.92L63.56 3.92L62.37 3.92L62.37 4.19C62.37 4.34 62.47 4.42 62.65 4.44L62.79 4.44C62.86 4.44 62.96 4.45 63.10 4.45C63.24 4.45 63.39 4.47 63.56 4.47L63.56 13.26C63.39 13.26 63.24 13.27 63.10 13.27C62.96 13.27 62.86 13.29 62.79 13.29L62.65 13.29C62.47 13.30 62.37 13.38 62.37 13.54L62.37 13.82L63.56 13.82L64.27 13.82L65.45 13.82L65.45 13.54C65.45 13.38 65.37 13.30 65.18 13.29L65.04 13.29C64.97 13.29 64.88 13.27 64.74 13.27C64.60 13.27 64.44 13.26 64.27 13.26L64.27 9.27L67.97 9.27L67.97 8.67L64.27 8.67L64.27 4.51L68.88 4.51C68.91 5.18 68.94 5.56 68.94 5.63C68.95 5.85 69.05 5.96 69.24 5.96L69.58 5.96L69.58 3.92ZM86.02 3.92L85.30 3.92L83.94 3.92L83.94 4.19C83.94 4.34 84.04 4.42 84.22 4.44L84.39 4.44C84.49 4.44 84.63 4.45 84.80 4.45C84.97 4.45 85.13 4.47 85.30 4.47L85.30 10.04C85.30 10.50 85.23 10.92 85.09 11.33C84.95 11.73 84.76 12.08 84.49 12.38C84.22 12.67 83.92 12.89 83.54 13.06C83.16 13.23 82.74 13.31 82.26 13.31C81.79 13.31 81.35 13.23 80.98 13.06C80.60 12.89 80.28 12.66 80.02 12.36C79.76 12.07 79.58 11.72 79.44 11.33C79.30 10.93 79.23 10.50 79.23 10.04L79.23 4.47C79.39 4.47 79.56 4.45 79.73 4.45C79.90 4.45 80.04 4.44 80.14 4.44L80.30 4.44C80.49 4.42 80.58 4.34 80.58 4.19L80.58 3.92L79.23 3.92L78.51 3.92L77.34 3.92L77.34 4.19C77.34 4.34 77.42 4.42 77.60 4.44L77.74 4.44C77.81 4.44 77.91 4.45 78.05 4.45C78.19 4.45 78.34 4.47 78.51 4.47L78.51 10.04C78.51 10.58 78.60 11.09 78.76 11.56C78.93 12.04 79.18 12.46 79.51 12.81C79.83 13.16 80.23 13.44 80.70 13.64C81.16 13.83 81.69 13.93 82.26 13.93C82.84 13.93 83.36 13.83 83.82 13.64C84.28 13.44 84.69 13.16 85.01 12.81C85.33 12.46 85.58 12.04 85.75 11.56C85.92 11.09 86.02 10.58 86.02 10.04L86.02 4.47C86.18 4.47 86.32 4.45 86.46 4.45C86.60 4.45 86.72 4.44 86.79 4.44L86.91 4.44C87.09 4.42 87.19 4.34 87.19 4.19L87.19 3.92ZM104.05 3.92L103.42 3.92L102.20 3.92L102.20 4.19C102.20 4.34 102.30 4.42 102.48 4.44L102.62 4.44C102.69 4.44 102.80 4.45 102.94 4.45C103.08 4.45 103.25 4.47 103.42 4.47L103.42 12.22C103.42 12.35 103.42 12.49 103.43 12.63L97.02 4.05C96.98 3.99 96.95 3.95 96.91 3.93C96.87 3.92 96.82 3.91 96.75 3.91L96.40 3.91L95.21 3.91L95.21 4.19C95.21 4.34 95.31 4.42 95.49 4.44L95.63 4.44C95.70 4.44 95.80 4.45 95.94 4.45C96.08 4.45 96.24 4.47 96.40 4.47L96.40 13.26C96.24 13.26 96.08 13.27 95.94 13.27C95.80 13.27 95.70 13.29 95.63 13.29L95.49 13.29C95.31 13.30 95.21 13.38 95.21 13.54L95.21 13.82L96.40 13.82L97.02 13.82L98.24 13.82L98.24 13.54C98.24 13.38 98.14 13.30 97.96 13.29L97.82 13.29C97.75 13.29 97.62 13.27 97.48 13.27C97.34 13.27 97.19 13.26 97.02 13.26L97.02 5.49C97.02 5.36 97.02 5.22 97.01 5.08L103.45 13.68C103.52 13.78 103.59 13.82 103.70 13.82L104.05 13.82L104.05 4.47C104.22 4.47 104.36 4.45 104.50 4.45C104.64 4.45 104.75 4.44 104.82 4.44L104.94 4.44C105.13 4.42 105.22 4.34 105.22 4.19L105.22 3.92ZM132.64 6.80C132.41 6.19 132.09 5.68 131.67 5.25C131.25 4.82 130.76 4.48 130.19 4.26C129.61 4.03 128.95 3.92 128.25 3.92L124.82 3.92L123.63 3.92L123.63 4.19C123.63 4.34 123.73 4.42 123.91 4.44L124.05 4.44C124.12 4.44 124.22 4.45 124.36 4.45C124.50 4.45 124.66 4.47 124.82 4.47L124.82 13.26C124.66 13.26 124.50 13.27 124.36 13.27C124.22 13.27 124.12 13.29 124.05 13.29L123.91 13.29C123.73 13.30 123.63 13.38 123.63 13.54L123.63 13.82L124.82 13.82L128.25 13.82C128.95 13.82 129.61 13.71 130.19 13.48C130.76 13.26 131.25 12.92 131.67 12.49C132.09 12.05 132.41 11.54 132.64 10.92C132.86 10.30 132.99 9.63 132.99 8.86C132.99 8.11 132.86 7.42 132.64 6.80ZM131.95 10.72C131.75 11.27 131.50 11.72 131.15 12.10C130.80 12.47 130.38 12.75 129.89 12.95C129.40 13.15 128.86 13.24 128.25 13.24L125.54 13.24L125.54 4.49L128.25 4.49C128.86 4.49 129.40 4.59 129.89 4.79C130.38 4.98 130.80 5.26 131.15 5.64C131.50 6.02 131.75 6.47 131.95 7.01C132.15 7.56 132.24 8.18 132.24 8.86C132.24 9.56 132.15 10.18 131.95 10.72ZM150.54 8.86C150.54 8.11 150.42 7.41 150.19 6.79C149.97 6.17 149.65 5.64 149.23 5.19C148.81 4.75 148.32 4.40 147.74 4.16C147.17 3.92 146.51 3.79 145.81 3.79C145.11 3.79 144.48 3.92 143.91 4.16C143.33 4.40 142.83 4.75 142.41 5.19C141.99 5.64 141.67 6.17 141.44 6.79C141.22 7.41 141.09 8.11 141.09 8.86C141.09 9.63 141.22 10.33 141.44 10.95C141.67 11.56 141.99 12.10 142.41 12.54C142.83 12.99 143.33 13.33 143.91 13.57C144.48 13.80 145.11 13.93 145.81 13.93C146.51 13.93 147.17 13.80 147.74 13.57C148.32 13.33 148.81 12.99 149.23 12.54C149.65 12.10 149.97 11.56 150.19 10.95C150.42 10.33 150.54 9.63 150.54 8.86ZM149.79 8.86C149.79 9.56 149.70 10.18 149.51 10.72C149.31 11.27 149.04 11.75 148.69 12.12C148.34 12.50 147.92 12.81 147.43 13.01C146.94 13.20 146.41 13.30 145.81 13.30C145.22 13.30 144.69 13.20 144.20 13.01C143.71 12.81 143.29 12.50 142.94 12.12C142.59 11.75 142.31 11.27 142.11 10.72C141.92 10.18 141.83 9.56 141.83 8.86C141.83 8.18 141.92 7.55 142.11 7.00C142.31 6.45 142.59 5.98 142.94 5.60C143.29 5.22 143.71 4.91 144.20 4.72C144.69 4.52 145.22 4.41 145.81 4.41C146.41 4.41 146.94 4.52 147.43 4.72C147.92 4.91 148.34 5.22 148.69 5.60C149.04 5.98 149.31 6.45 149.51 7.00C149.70 7.55 149.79 8.18 149.79 8.86ZM161.63 4.44C161.81 4.42 161.90 4.34 161.90 4.19L161.90 3.91L160.72 3.91L160.01 3.91L158.82 3.91L158.82 4.19C158.82 4.34 158.91 4.42 159.10 4.44L159.24 4.44C159.31 4.44 159.40 4.45 159.54 4.45C159.68 4.45 159.84 4.47 160.01 4.47L160.01 13.26C159.84 13.26 159.68 13.27 159.54 13.27C159.40 13.27 159.31 13.29 159.24 13.29L159.10 13.29C158.91 13.30 158.82 13.38 158.82 13.54L158.82 13.82L160.01 13.82L160.72 13.82L161.90 13.82L161.90 13.54C161.90 13.38 161.81 13.30 161.63 13.29L161.49 13.29C161.42 13.29 161.32 13.27 161.18 13.27C161.04 13.27 160.89 13.26 160.72 13.26L160.72 4.47C160.89 4.47 161.04 4.45 161.18 4.45C161.32 4.45 161.42 4.44 161.49 4.44ZM179.07 3.92L178.44 3.92L177.23 3.92L177.23 4.19C177.23 4.34 177.32 4.42 177.51 4.44L177.65 4.44C177.72 4.44 177.83 4.45 177.97 4.45C178.11 4.45 178.28 4.47 178.44 4.47L178.44 12.22C178.44 12.35 178.44 12.49 178.46 12.63L172.05 4.05C172.00 3.99 171.98 3.95 171.93 3.93C171.89 3.92 171.85 3.91 171.78 3.91L171.43 3.91L170.24 3.91L170.24 4.19C170.24 4.34 170.34 4.42 170.52 4.44L170.66 4.44C170.73 4.44 170.83 4.45 170.97 4.45C171.11 4.45 171.26 4.47 171.43 4.47L171.43 13.26C171.26 13.26 171.11 13.27 170.97 13.27C170.83 13.27 170.73 13.29 170.66 13.29L170.52 13.29C170.34 13.30 170.24 13.38 170.24 13.54L170.24 13.82L171.43 13.82L172.05 13.82L173.26 13.82L173.26 13.54C173.26 13.38 173.17 13.30 172.98 13.29L172.84 13.29C172.77 13.29 172.65 13.27 172.51 13.27C172.37 13.27 172.21 13.26 172.05 13.26L172.05 5.49C172.05 5.36 172.05 5.22 172.03 5.08L178.47 13.68C178.54 13.78 178.61 13.82 178.72 13.82L179.07 13.82L179.07 4.47C179.24 4.47 179.38 4.45 179.52 4.45C179.66 4.45 179.77 4.44 179.84 4.44L179.97 4.44C180.15 4.42 180.25 4.34 180.25 4.19L180.25 3.92ZM193.93 9.32L193.93 9.72C193.93 9.76 193.96 9.80 193.98 9.83C194.01 9.86 194.05 9.87 194.11 9.87L196.01 9.87L196.01 12.54C195.79 12.67 195.57 12.78 195.36 12.88C195.15 12.98 194.91 13.08 194.67 13.15C194.43 13.22 194.17 13.27 193.89 13.30C193.61 13.33 193.30 13.34 192.96 13.34C192.35 13.34 191.79 13.24 191.28 13.03C190.78 12.82 190.34 12.53 189.98 12.15C189.62 11.77 189.34 11.30 189.14 10.74C188.94 10.18 188.83 9.56 188.83 8.86C188.83 8.18 188.94 7.56 189.14 7.01C189.34 6.47 189.62 5.99 189.98 5.61C190.34 5.24 190.79 4.94 191.31 4.73C191.83 4.52 192.40 4.42 193.05 4.42C194.22 4.42 195.16 4.58 195.85 4.90C195.89 5.81 195.92 6.31 195.92 6.41C195.93 6.64 196.03 6.75 196.22 6.75L196.56 6.75L196.56 4.51C196.13 4.31 195.57 4.14 194.87 4.00C194.17 3.86 193.58 3.81 193.07 3.81C192.32 3.81 191.63 3.92 191.02 4.16C190.40 4.40 189.88 4.75 189.45 5.18C189.01 5.61 188.69 6.15 188.45 6.78C188.22 7.39 188.10 8.09 188.10 8.86C188.10 9.63 188.22 10.32 188.45 10.95C188.69 11.58 189.01 12.10 189.43 12.54C189.85 12.99 190.37 13.33 190.96 13.57C191.55 13.80 192.19 13.93 192.91 13.93C193.33 13.93 193.70 13.90 194.05 13.86C194.40 13.80 194.73 13.73 195.03 13.65C195.34 13.55 195.62 13.44 195.89 13.30C196.15 13.16 196.41 13.01 196.66 12.84L196.66 9.32ZM221.16 9.91C221.02 9.65 220.82 9.39 220.58 9.21C220.35 9.03 220.09 8.88 219.80 8.75C219.51 8.62 219.18 8.51 218.88 8.41C218.57 8.32 218.26 8.20 217.97 8.11C217.67 7.99 217.41 7.87 217.17 7.71C216.93 7.56 216.75 7.38 216.61 7.15C216.47 6.93 216.38 6.65 216.38 6.31C216.38 6.06 216.44 5.82 216.54 5.59C216.64 5.35 216.78 5.15 216.96 4.97C217.14 4.79 217.36 4.65 217.64 4.55C217.92 4.45 218.23 4.40 218.60 4.40C219.27 4.40 219.88 4.51 220.44 4.75C220.49 5.54 220.51 5.99 220.51 6.06C220.53 6.29 220.61 6.41 220.81 6.41L221.14 6.41L221.14 4.38C220.26 4.00 219.42 3.81 218.60 3.81C218.13 3.81 217.73 3.88 217.36 4.02C217 4.16 216.71 4.34 216.47 4.58C216.23 4.82 216.03 5.08 215.91 5.39C215.78 5.70 215.73 6.02 215.73 6.36C215.73 6.78 215.80 7.14 215.94 7.42C216.08 7.70 216.27 7.92 216.51 8.12C216.75 8.32 217 8.46 217.29 8.58C217.59 8.71 217.91 8.82 218.22 8.92C218.53 9.02 218.82 9.11 219.13 9.21C219.42 9.31 219.69 9.45 219.93 9.60C220.16 9.76 220.35 9.94 220.49 10.16C220.63 10.39 220.70 10.68 220.70 11.03C220.70 11.35 220.64 11.66 220.53 11.94C220.42 12.22 220.26 12.46 220.05 12.67C219.84 12.88 219.58 13.05 219.27 13.16C218.96 13.29 218.61 13.33 218.22 13.33C217.43 13.33 216.78 13.20 216.24 12.95C216.23 12.75 216.23 12.54 216.22 12.32C216.20 12.10 216.20 11.91 216.19 11.76C216.17 11.61 216.17 11.52 216.17 11.51C216.16 11.28 216.06 11.17 215.87 11.17L215.53 11.17L215.53 13.02L215.53 13.20L215.53 13.38C216.38 13.75 217.27 13.93 218.19 13.93C218.69 13.93 219.14 13.85 219.53 13.69C219.93 13.54 220.26 13.31 220.53 13.05C220.79 12.78 221.02 12.46 221.16 12.10C221.30 11.73 221.37 11.34 221.37 10.92C221.37 10.51 221.30 10.18 221.16 9.91ZM235.86 4.68C235.27 4.17 234.39 3.92 233.23 3.92L230.82 3.92L229.63 3.92L229.63 4.19C229.63 4.34 229.73 4.42 229.91 4.44L230.05 4.44C230.12 4.44 230.22 4.45 230.36 4.45C230.50 4.45 230.65 4.47 230.82 4.47L230.82 13.26C230.65 13.26 230.50 13.27 230.36 13.27C230.22 13.27 230.12 13.29 230.05 13.29L229.91 13.29C229.73 13.30 229.63 13.38 229.63 13.54L229.63 13.82L230.82 13.82L231.53 13.82L232.71 13.82L232.71 13.54C232.71 13.38 232.61 13.30 232.43 13.29L232.30 13.29C232.23 13.29 232.12 13.27 231.98 13.27C231.84 13.27 231.70 13.26 231.53 13.26L231.53 9.83L233.23 9.83C233.77 9.83 234.26 9.74 234.70 9.60C235.13 9.45 235.49 9.25 235.80 8.99C236.11 8.72 236.35 8.41 236.50 8.05C236.67 7.69 236.74 7.29 236.74 6.86C236.74 5.92 236.45 5.18 235.86 4.68ZM235.83 7.81C235.70 8.11 235.52 8.36 235.28 8.57C235.05 8.78 234.75 8.95 234.40 9.07C234.05 9.20 233.66 9.25 233.23 9.25L231.53 9.25L231.53 4.48L233.23 4.48C234.15 4.48 234.85 4.69 235.33 5.10C235.79 5.50 236.03 6.09 236.03 6.85C236.03 7.20 235.96 7.52 235.83 7.81ZM254.20 8.86C254.20 8.11 254.07 7.41 253.85 6.79C253.62 6.17 253.30 5.64 252.88 5.19C252.46 4.75 251.97 4.40 251.40 4.16C250.82 3.92 250.17 3.79 249.47 3.79C248.77 3.79 248.14 3.92 247.56 4.16C246.99 4.40 246.48 4.75 246.06 5.19C245.64 5.64 245.32 6.17 245.10 6.79C244.87 7.41 244.75 8.11 244.75 8.86C244.75 9.63 244.87 10.33 245.10 10.95C245.32 11.56 245.64 12.10 246.06 12.54C246.48 12.99 246.99 13.33 247.56 13.57C248.14 13.80 248.77 13.93 249.47 13.93C250.17 13.93 250.82 13.80 251.40 13.57C251.97 13.33 252.46 12.99 252.88 12.54C253.30 12.10 253.62 11.56 253.85 10.95C254.07 10.33 254.20 9.63 254.20 8.86ZM253.44 8.86C253.44 9.56 253.36 10.18 253.16 10.72C252.97 11.27 252.70 11.75 252.35 12.12C252 12.50 251.58 12.81 251.09 13.01C250.60 13.20 250.07 13.30 249.47 13.30C248.88 13.30 248.35 13.20 247.86 13.01C247.37 12.81 246.95 12.50 246.60 12.12C246.25 11.75 245.97 11.27 245.77 10.72C245.57 10.18 245.49 9.56 245.49 8.86C245.49 8.18 245.57 7.55 245.77 7.00C245.97 6.45 246.25 5.98 246.60 5.60C246.95 5.22 247.37 4.91 247.86 4.72C248.35 4.52 248.88 4.41 249.47 4.41C250.07 4.41 250.60 4.52 251.09 4.72C251.58 4.91 252 5.22 252.35 5.60C252.70 5.98 252.97 6.45 253.16 7.00C253.36 7.55 253.44 8.18 253.44 8.86ZM270.47 13.29L270.37 13.29L270.19 13.29C270.10 13.29 270.02 13.27 269.93 13.27L266.97 9.53C266.88 9.42 266.77 9.32 266.66 9.25C267.09 9.21 267.48 9.11 267.83 8.96C268.18 8.81 268.46 8.61 268.72 8.37C268.95 8.13 269.15 7.85 269.28 7.55C269.40 7.24 269.47 6.89 269.47 6.51C269.47 5.66 269.19 5.03 268.63 4.58C268.07 4.14 267.22 3.92 266.07 3.92L263.66 3.92L262.49 3.92L262.49 4.19C262.49 4.34 262.57 4.42 262.75 4.44L262.89 4.44C262.96 4.44 263.06 4.45 263.20 4.45C263.34 4.45 263.49 4.47 263.66 4.47L263.66 13.26C263.49 13.26 263.34 13.27 263.20 13.27C263.06 13.27 262.96 13.29 262.89 13.29L262.75 13.29C262.57 13.30 262.47 13.38 262.47 13.54L262.47 13.82L263.66 13.82L264.38 13.82L265.55 13.82L265.55 13.54C265.55 13.38 265.45 13.30 265.27 13.29L265.13 13.29C265.06 13.29 264.96 13.27 264.82 13.27C264.68 13.27 264.54 13.26 264.38 13.26L264.38 9.34L265.55 9.34C265.75 9.34 265.89 9.35 265.97 9.39C266.06 9.44 266.14 9.52 266.22 9.62L269.40 13.64C269.46 13.71 269.50 13.75 269.56 13.78C269.61 13.80 269.68 13.82 269.75 13.82L269.82 13.82L270.37 13.82L270.73 13.82L270.73 13.54C270.73 13.38 270.65 13.30 270.47 13.29ZM265.97 8.81L264.38 8.81L264.38 4.48L266.07 4.48C266.95 4.48 267.62 4.66 268.09 5.00C268.55 5.33 268.77 5.87 268.77 6.57C268.77 6.92 268.72 7.21 268.59 7.49C268.46 7.77 268.27 7.99 268.03 8.19C267.79 8.39 267.50 8.55 267.15 8.65C266.80 8.75 266.41 8.81 265.97 8.81ZM286.15 3.92L285.95 3.92L278.66 3.92L278.45 3.92L278.35 3.92L278.35 5.96L278.70 5.96C278.89 5.96 278.98 5.85 278.99 5.63C278.99 5.53 279.02 5.17 279.05 4.52L281.95 4.52L281.95 13.26C281.78 13.26 281.64 13.27 281.50 13.27C281.36 13.27 281.25 13.29 281.18 13.29L281.05 13.29C280.87 13.30 280.77 13.38 280.77 13.54L280.77 13.82L281.95 13.82L282.66 13.82L283.85 13.82L283.85 13.54C283.85 13.38 283.75 13.30 283.57 13.29L283.43 13.29C283.36 13.29 283.26 13.27 283.12 13.27C282.98 13.27 282.83 13.26 282.66 13.26L282.66 4.52L285.54 4.52C285.59 5.24 285.60 5.60 285.60 5.63C285.61 5.85 285.71 5.96 285.91 5.96L286.24 5.96L286.24 3.92Z"></path></g></svg>