<svg data-v-fde0c5aa="" xmlns="http://www.w3.org/2000/svg" viewBox="0 0 300 300" class="icon"><!----><defs data-v-fde0c5aa=""><!----></defs><rect data-v-fde0c5aa="" fill="transparent" x="0" y="0" width="300px" height="300px" class="logo-background-square"></rect><!----><defs data-v-fde0c5aa=""><linearGradient data-v-fde0c5aa="" gradientTransform="rotate(25)" id="1ea41d0c-b43e-4326-99e4-13bc971be9b3" x1="0%" y1="0%" x2="100%" y2="0%"><stop data-v-fde0c5aa="" offset="0%" stop-color="#D0A070" stop-opacity="1"></stop><stop data-v-fde0c5aa="" offset="100%" stop-color="#6BE371" stop-opacity="1"></stop></linearGradient></defs><g data-v-fde0c5aa="" id="2164f74a-1270-483d-85c7-170c04cd74a2" fill="url(#1ea41d0c-b43e-4326-99e4-13bc971be9b3)" stroke="none" transform="matrix(2.3146927131245314,0,0,2.3146927131245314,34.39612782896416,41.2009525804841)"><path d="M84.494 32.769c-6.481-1.252-13.045-.589-18.771 2.029a30.68 30.68 0 0 1 1.063 7.998c0 9.552-4.4 18.414-12.171 24.791 8.304.499 16.402-2.143 22.343-8.083 6.984-6.985 9.427-16.958 7.536-26.735z"></path><path d="M86.757 49.471c-1.496 4.631-4.017 8.841-7.516 12.338-5.86 5.86-13.905 9.107-22.653 9.107h-.001c-.388 0-.78-.013-1.172-.03 6.388 3.98 13.913 5.579 21.388 3.896 9.637-2.168 17.033-9.289 20.663-18.562-3.168-2.981-6.81-5.282-10.709-6.749zM43.299 70.916c-8.748 0-16.793-3.247-22.654-9.108-3.498-3.498-6.021-7.706-7.517-12.336-3.899 1.467-7.54 3.768-10.707 6.749 3.63 9.272 11.026 16.394 20.663 18.562 7.475 1.683 15 .084 21.386-3.896-.392.017-.783.029-1.171.029z"></path><path d="M33.174 42.795c0-2.727.362-5.396 1.054-7.969-5.742-2.642-12.33-3.315-18.837-2.058-1.89 9.777.553 19.75 7.538 26.734 5.957 5.957 14.084 8.599 22.411 8.079-7.767-6.375-12.166-15.235-12.166-24.786z"></path><path d="M36.406 42.795c0 9.878 5.324 18.657 13.574 24.235 8.25-5.578 13.574-14.356 13.574-24.235S58.23 24.138 49.98 18.561c-8.25 5.578-13.574 14.355-13.574 24.234z"></path></g><!----></svg>