<?xml version="1.0" encoding="utf-8"?>
<!-- Generator: Adobe Illustrator 22.0.1, SVG Export Plug-In . SVG Version: 6.00 Build 0)  -->
<svg version="1.1" id="Layer_1" xmlns="http://www.w3.org/2000/svg" xmlns:xlink="http://www.w3.org/1999/xlink" x="0px" y="0px"
	 viewBox="0 0 400 400" style="enable-background:new 0 0 400 400;" xml:space="preserve">
<style type="text/css">
	.st0{fill:#FFC627;}
	.st1{fill:#8B2332;}
	.st2{fill:#0D2240;}
	.st3{fill:#FFFFFF;}
</style>
<g>
	<path class="st0" d="M200.2,353.6c-84.7,0-153.6-68.9-153.6-153.6S115.5,46.4,200.2,46.4S353.8,115.3,353.8,200
		S284.9,353.6,200.2,353.6"/>
	<path class="st1" d="M200.2,54.3C280.6,54.3,346,119.6,346,200s-65.4,145.7-145.8,145.7S54.5,280.3,54.5,200
		C54.5,119.6,119.9,54.3,200.2,54.3"/>
	<path class="st2" d="M338.5,200.4c0,76.6-62.1,138.7-138.7,138.7S61.1,277,61.1,200.4S123.2,61.7,199.8,61.7
		C276.4,61.7,338.5,123.8,338.5,200.4"/>
	<path class="st1" d="M199.8,302.5c55.6,0,100.8-45.2,100.8-100.9c0-55.5-45.2-100.8-100.8-100.8S99,146.1,99,201.6
		C98.9,257.3,144.1,302.5,199.8,302.5"/>
	<path class="st2" d="M105.6,201.7c0-51.9,42.2-94.1,94.1-94.1s94.1,42.2,94.1,94.1s-42.2,94.1-94.1,94.1
		C147.9,295.8,105.6,253.6,105.6,201.7"/>
	<path class="st0" d="M282.5,222.9c0.1-16.1-8.6-38.3-16.3-53l-11.4,6.4l-1.1-1.8l0,0l0,0l-2.9,1.8l-113.5,71.4v0.1l-5.2,6.3
		l-0.1-0.2c-1.6-0.3-3.7-2-5.3-4.7c-1.7-2.6-2.4-5.3-2-6.7l-0.1-0.2l7.8-2.1l0.1,0.1l58.4-38l-39.4-24.8l0,0l-4.9-3.1l0,0l0,0
		l-1.2,1.8l-11.4-6.4c-7.8,14.8-16.4,36.9-16.3,53c-6-18.7,0.2-44.2,8.6-60.7l0.1-0.1l-2.1-1.2l6.8-10.5l2,1.4
		c11.4-14.5,31.8-30.6,51.2-33.1c-14.6,6.7-31.1,23.7-41.2,36.9l10.6,7.7l-1.3,1.9l0,0l0,0l2.7,1.8l44.9,29.2l44.3-28.8l3.4-2.2l0,0
		l0,0l-1.3-1.9l10.6-7.7c-10.1-13.1-26.5-30.2-41.1-36.9c19.4,2.5,39.8,18.6,51.3,33.1l1.9-1.4l6.8,10.5l-2.1,1.2
		C282.3,178.8,288.5,204.3,282.5,222.9 M267.8,240.2l-0.1,0.1L214,205.4l-9.4,5.6l58.4,36.8l-0.1,0.1l5.2,6.3l0.2-0.2
		c1.6-0.3,3.7-2,5.3-4.7c1.6-2.6,2.4-5.3,2-6.7l0.1-0.2L267.8,240.2z"/>
	<polygon class="st0" points="209.3,128.2 205.3,133.5 199.7,120.2 199.7,181.8 218.5,157.8 237.4,162.7 	"/>
	<polygon class="st3" points="209.3,142.7 209.3,128.3 205.3,133.5 	"/>
	<polygon class="st3" points="199.7,120.2 165.6,161.7 180.6,157.9 199.7,181.8 	"/>
	<path class="st0" d="M178.8,276.9c4.9-4.7,11.2-7.6,18-8.3v-9.4h-26C171.4,266.1,174.3,272.2,178.8,276.9"/>
	<path class="st0" d="M196.8,285.7v-11.2c-5.1,0.6-9.7,2.7-13.6,6.2C187.2,283.4,191.9,285.1,196.8,285.7"/>
	<path class="st3" d="M202.6,227.8v11.1c5-0.6,9.8-2.7,13.5-6.2C212.2,230.1,207.6,228.3,202.6,227.8"/>
	<path class="st3" d="M220.6,236.6c-4.9,4.7-11.2,7.6-18,8.2v8.6h26C227.8,246.9,224.9,241,220.6,236.6"/>
	<path class="st3" d="M196.8,238.9v-11.1c-5,0.5-9.6,2.3-13.5,5C187.1,236.2,191.8,238.3,196.8,238.9"/>
	<path class="st0" d="M202.6,259.2v9.4c6.8,0.6,13.1,3.5,18,8.3c4.5-4.7,7.5-10.8,8.1-17.7L202.6,259.2L202.6,259.2z"/>
	<path class="st3" d="M170.9,253.4h26v-8.6c-6.8-0.6-13-3.6-18-8.2C174.5,241,171.6,246.9,170.9,253.4"/>
	<path class="st0" d="M202.6,285.7c5-0.5,9.6-2.3,13.5-4.9c-3.8-3.5-8.5-5.6-13.5-6.2V285.7z"/>
	<polygon class="st0" points="311.6,187.9 315.3,194.2 306.2,202.7 318,198.3 321.7,204.7 322.3,197.5 330.2,197 323.8,193.1 
		331.7,180.6 318.6,191.2 	"/>
	<polygon class="st0" points="88,187.8 84.4,194.1 93.4,202.6 81.6,198.2 77.9,204.6 77.3,197.4 69.4,196.9 75.9,193 67.9,180.5 
		81,191.1 	"/>
	<path class="st3" d="M108.1,143.1l-18.3-13l4.1-5.8c0.7-0.9,1.5-1.8,2.4-2.6c0.5-0.5,1.1-0.9,1.7-1.2c0.1-0.1,0.2-0.2,0.3-0.4
		c0.1-0.1,0.1-0.2,0.2-0.3l0.2-0.4l16.1,11.4c-0.1,1.1-0.4,2.2-0.8,3.3c-0.4,1-0.9,2-1.6,2.9l-0.1,0.1L108.1,143.1z M96.6,126.5
		c-0.4,0.6-0.4,1.3-0.1,1.7c0.1,0.1,0.2,0.2,0.3,0.3l11.2,8l0,0c0.6,0.1,1.2-0.1,1.5-0.6l0.1-0.1c0.5-0.7,0.4-1.6-0.1-2L98.6,126
		C98,125.5,97.1,125.7,96.6,126.5L96.6,126.5z"/>
	<polygon class="st3" points="135.3,113.6 124.8,97.7 123.8,98.4 121.9,95.5 133.5,87.8 135.4,90.7 129.7,94.5 132.9,99.3 
		137.3,96.4 138.4,99.5 134.6,101.9 138.3,107.4 144,103.7 145.9,106.6 	"/>
	<polygon class="st3" points="178.9,94.6 174.4,87.1 173.9,87.2 175.6,95.3 170.3,96.4 166.4,77.8 165.3,78 164.6,74.6 170.2,73.5 
		175.5,81 175.9,80.8 174.2,72.7 179.5,71.6 184.1,93.5 	"/>
	<path class="st3" d="M214.7,93.3l0.5-22.7l5,0.8l-0.7,13.9l0.5,0.1l4.1-13.4l5,0.8c-2,6-6.9,19.8-7.5,21.5L214.7,93.3z"/>
	<path class="st3" d="M294.2,131.9l-1.2-1.6l-6.4,5l-3.2-4.2l17.8-13.7l4.3,5.6c0.7,0.9,1.3,1.9,1.8,3c0.3,0.6,0.6,1.3,0.8,1.9
		c0.1,0.2,0.2,0.3,0.3,0.4c0.1,0.1,0.1,0.1,0.2,0.2l0.3,0.3l-9.5,7.3c-0.5-0.3-1.1-0.6-1.6-0.9l-0.2-0.1l-5.1,7.8l-3.1-3.9
		L294.2,131.9z M302.5,125c-0.4-0.5-1-0.8-1.5-0.7c-0.1,0-0.2,0.1-0.3,0.2l-4.2,3.3c-0.6,0.5-0.5,1.3-0.1,1.8v0.1
		c0.5,0.7,1.3,0.9,1.8,0.6l4.3-3.2C303.1,126.6,303.1,125.7,302.5,125L302.5,125z"/>
	<polygon class="st3" points="251.8,105.6 261.7,89.3 260.6,88.7 262.4,85.7 274.3,93 272.5,95.9 266.7,92.3 263.8,97.1 268.3,99.9 
		265.8,102.5 262,100.1 258.6,105.6 264.5,109.2 262.7,112.2 	"/>
	<path class="st3" d="M162,327.1c-1.2-0.3-2.3-0.8-3.4-1.5c-1.1-0.6-2-1.3-2.8-2.1l5.8-19.1c1.1-0.3,2.3-0.3,3.5-0.3
		c1.3,0.1,2.5,0.3,3.7,0.7c1.2,0.3,2.3,0.8,3.4,1.5c0.5,0.3,1,0.6,1.4,0.9c0.2,0.2,0.5,0.3,0.8,0.4c0.1,0,0.2,0.1,0.3,0.1l0.5,0.1
		l-0.2,0.5l-1.7,5.5l-5.1-1.5l0.7-2.4c0.2-0.6-0.2-1.3-0.9-1.6c-0.1,0-0.2-0.1-0.3-0.1c-0.8-0.3-1.7,0.1-1.9,0.8l-4.2,13.7
		c-0.1,0.3,0,0.6,0.1,0.9c0.2,0.4,0.6,0.7,1.1,0.8c0.8,0.3,1.7-0.1,1.9-0.8l1.8-5.8l-1.6-0.9l1.7-2.8l6.1,1.8l-3.5,11.6
		c-1.1,0.3-2.3,0.3-3.5,0.3C164.4,327.6,163.1,327.4,162,327.1"/>
	<path class="st3" d="M206.8,332.2c-1.2,0.1-2.5,0-3.7-0.2s-2.3-0.6-3.3-1.1l-1.1-20c0.9-0.6,2-1.1,3.2-1.4s2.5-0.6,3.7-0.6
		c1.2-0.1,2.5,0,3.7,0.2c0.6,0.1,1.1,0.2,1.7,0.4c0.3,0.1,0.6,0.1,0.8,0.1c0.1,0,0.2,0,0.3,0l0.5-0.1v0.5l0.3,5.7l-5.3,0.3l-0.1-2.5
		c0-0.6-0.6-1.2-1.4-1.2c-0.1,0-0.2,0-0.3,0c-0.9,0.1-1.6,0.7-1.5,1.4L205,328c0,0.3,0.2,0.6,0.4,0.8c0.3,0.3,0.8,0.4,1.3,0.4
		c0.9,0,1.6-0.7,1.5-1.4l-0.3-6.1l-1.8-0.2l0.6-3.2l6.3-0.3l0.7,12.1c-0.9,0.6-2,1.1-3.2,1.4C209.3,331.9,208,332.1,206.8,332.2"/>
	<path class="st3" d="M121.6,306.5c-1-0.7-1.9-1.6-2.7-2.6c-0.8-0.9-1.4-2-1.8-3l10.9-14l-0.9-0.7l2.1-2.7l5.2,4l-11.5,14.8
		c-0.4,0.6-0.2,1.5,0.5,2s1.6,0.5,2.1-0.1l11.5-14.8l4.2,3.3l-13,16.8c-1.1-0.1-2.2-0.5-3.3-1C123.6,307.9,122.5,307.3,121.6,306.5"
		/>
	<polygon class="st3" points="282.9,302.3 270.6,287.8 267.3,290.7 265,288 275.8,278.8 278.1,281.5 274.8,284.3 287.1,298.7 	"/>
	<path class="st3" d="M310.7,271.2c-0.6,1-1.4,2-2.3,2.9c-0.8,0.8-1.8,1.5-2.8,2l-4.6-2.9l2.8-4.5l2.4,1.5c0.3,0.2,0.7,0.2,1,0.1
		c0.4-0.1,0.7-0.4,0.9-0.7v-0.1c0.4-0.7,0.3-1.6-0.3-2l-5.2-3.2l-3.1,4.8c-0.8,1.3-2.3,1.8-3.3,1.2c-0.2-0.1-0.4-0.2-0.5-0.3
		l-7.3-4.6c0-1.1,0.3-2.2,0.7-3.4c0.4-1.2,0.9-2.3,1.6-3.3c0.6-1,1.4-2,2.3-2.9c0.5-0.5,1-0.9,1.5-1.3c0.2-0.2,0.3-0.3,0.4-0.5
		c0.1-0.1,0.1-0.2,0.1-0.3l0.2-0.4l5.3,3.3l-2.8,4.5l-2.2-1.4c-0.1-0.1-0.2-0.1-0.3-0.1c-0.6-0.1-1.2,0.2-1.6,0.8v0.1
		c-0.4,0.7-0.3,1.6,0.3,2l3.7,2.3l0.1,0.1l0.2,0.1l3-4.7c0.9-1.4,2.4-1.9,3.5-1.3l0.9,0.6l0.2,0.1l7.2,4.5c0,1.1-0.3,2.2-0.7,3.4
		C311.9,269,311.3,270.2,310.7,271.2"/>
	<polygon class="st3" points="237.8,306.5 236.7,307 235.4,303.9 248.3,298.5 249.6,301.7 243.3,304.3 245.4,309.5 250.3,307.4 
		250.9,311 246.7,312.7 249.2,318.6 255.5,316 256.9,319.2 245.2,324.1 	"/>
	<polygon class="st3" points="91.8,274.9 97.1,267.9 96.8,267.5 89.9,272.1 86.9,267.6 102.7,257 102,256 104.9,254.1 108.1,258.9 
		103.1,266.6 103.5,266.9 110.4,262.3 113.4,266.8 94.8,279.3 	"/>
</g>
</svg>
