<?xml version="1.0" encoding="utf-8"?>
<!-- Generator: Adobe Illustrator 23.0.0, SVG Export Plug-In . SVG Version: 6.00 Build 0)  -->
<svg version="1.1" id="Layer_1" xmlns="http://www.w3.org/2000/svg" xmlns:xlink="http://www.w3.org/1999/xlink" x="0px" y="0px"
	 viewBox="0 0 400 400" style="enable-background:new 0 0 400 400;" xml:space="preserve">
<style type="text/css">
	.st0{fill:#FFFFFF;}
	.st1{fill:#9EA2A2;}
	.st2{fill:#707271;}
	.st3{fill:#373A36;}
	.st4{fill:#061922;}
	.st5{fill:#CE1141;}
</style>
<g>
	<path class="st0" d="M334.4,140.1c-11.2-25.5-29.3-47.2-52.5-63c-24.4-16.6-53-25.3-82.5-25.3c-29.6,0-58.1,8.8-82.5,25.3
		c-23.1,15.7-41.3,37.5-52.5,63c-50.1,13.1-60.6,29.5-60.6,41l0.1,62.4c0.7,10.5,11.7,30,77.5,43.7c13.3,17.7,30.6,32.5,50.2,42.7
		c20.8,10.9,44.3,16.6,67.9,16.6c23.6,0,47.1-5.7,67.9-16.6c19.6-10.2,36.9-25,50.2-42.7c65.8-13.7,76.8-33.2,77.5-43.8l0-62.3
		C395,169.7,384.5,153.3,334.4,140.1z"/>
	<g>
		<path class="st1" d="M330.9,144.2c-21.6-51.4-72.4-87.5-131.5-87.5S89.5,92.8,67.9,144.2c-36.5,9.3-59.3,22.4-59.3,37l0,62.1
			c0-13.1,18.4-24,48.6-33c5.6,73.5,67.2,131.6,142.2,131.6c74.9,0,136.5-58.1,142.2-131.6c30.2,9,48.6,19.9,48.6,33l0-62.1
			C390.2,166.6,367.5,153.5,330.9,144.2z"/>
		<path class="st2" d="M390,241.5c0-0.2-0.1-0.4-0.1-0.7c0-0.3-0.1-0.5-0.2-0.8c0-0.1-0.1-0.3-0.1-0.4c-0.1-0.3-0.2-0.6-0.3-0.9
			c0-0.1-0.1-0.2-0.1-0.3c-0.1-0.4-0.3-0.7-0.4-1.1c0,0,0-0.1,0-0.1c-2-4.4-6.1-8.5-12-12.3c-9.5,6.3-23.9,12.2-41.4,16.9
			c0,0,0,0,0,0l0,0c-2.3,7.4-5.3,14.6-8.7,21.5l0,0l0,0c-3.5,6.9-7.5,13.4-12,19.6l0,0c45-9.1,74.4-23.5,75.4-39.7
			c0-0.4,0-0.8-0.1-1.2C390.1,241.8,390.1,241.7,390,241.5z"/>
		<path class="st2" d="M8.8,241.5c0-0.2,0.1-0.4,0.1-0.7c0-0.3,0.1-0.5,0.2-0.8c0-0.1,0.1-0.3,0.1-0.4c0.1-0.3,0.2-0.6,0.3-0.9
			c0-0.1,0.1-0.2,0.1-0.3c0.1-0.4,0.3-0.7,0.4-1.1c0,0,0-0.1,0-0.1c2-4.4,6.1-8.5,12-12.3c9.5,6.3,23.9,12.2,41.4,16.9c0,0,0,0,0,0
			l0,0c2.3,7.4,5.3,14.6,8.7,21.5c0,0,0,0,0,0l0,0c3.5,6.9,7.5,13.4,12,19.6c0,0,0,0,0,0c-45-9.1-74.4-23.5-75.4-39.7
			c0-0.4,0-0.8,0.1-1.2C8.7,241.8,8.8,241.7,8.8,241.5z"/>
		<circle class="st3" cx="199.4" cy="199.2" r="135.2"/>
		<g>
			<path class="st4" d="M372.1,166.3c-9-5.7-22.6-11-39.3-15.5c-2.6-0.7-5.3-1.4-8-2c-20-49.6-68.6-84.7-125.4-84.7
				c-56.8,0-105.4,35-125.4,84.7c-2.7,0.6-5.4,1.3-8,2c-16.7,4.5-30.3,9.8-39.3,15.5c-5.6,3.5-12.2,9-12.2,14.9v42.5
				c10.1-8.2,26.4-15.3,48.5-21.2c0.4-0.1,0.9-0.2,1.3-0.3c1.6,73.3,61.5,132.2,135.1,132.2c73.7,0,133.6-58.9,135.1-132.2
				c0.4,0.1,0.9,0.2,1.3,0.3c22.1,5.9,38.4,13,48.5,21.2v-42.5C384.3,175.2,377.7,169.8,372.1,166.3z M285.1,114.3
				c0.5-1,1.8-1.3,2.6-0.5c9,9.3,16.5,20,22.2,31.7c-1.1-0.2-2.3-0.4-3.4-0.6c-7.3-8.3-15.6-15.8-24.6-22.2
				C282.8,119.8,283.8,117,285.1,114.3z M253.7,89c8.3,4.1,16.1,9.1,23.2,14.9c1.5,1.2,2,3.4,1.1,5.1c-1.4,2.8-2.6,5.6-3.6,8.6
				c-6.5-4.1-13.3-7.7-20.5-10.8c-1-5.1-2.1-10.2-3.4-15.2C250,89.7,252,88.1,253.7,89z M217.3,77.6c6.2,0.9,12.2,2.3,18.1,4
				c2.2,0.7,3.9,2.4,4.6,4.6c1.7,5.5,3.2,11.1,4.4,16.8c-7.1-2.5-14.5-4.4-22-5.8c-1-3.2-2.1-6.3-3.5-9.3c-1.1-2.4-2.4-4.7-3.7-7
				C214.1,79.4,215.4,77.4,217.3,77.6z M322.3,199.2c0,21.8-5.7,42.3-15.7,60.1c-0.6,1.1-2.2,0.4-1.9-0.7l0-0.1
				c4.8-21.3,3.7-43-2.8-63.3c-0.6-1.8-1.2-3.6-1.8-5.3c-0.3-0.8-1-1.4-1.9-1.5l-5.5-0.9c-1.4-0.2-2.4,1.1-1.9,2.4
				c0.5,1.3,1,2.5,1.5,3.8c7.3,20,8.7,41.6,4,62.9c-0.3,1.2-0.6,2.5-0.9,3.7c-5,19.4-18.8,35.2-37.1,43.2
				c-15.4,6.8-32.5,10.6-50.3,10.7c-7.7,0-15.3-0.6-22.6-1.9c-3-0.5-4.1-4.4-1.7-6.4c4.3-3.6,8.4-7.4,12.4-11.4
				c2.9-2.9,5.6-5.8,8.3-8.8c1.1-1.3,1.7-2.9,1.7-4.7l-0.2-7.4c0-1.1-1.4-1.6-2.1-0.7c-9.4,11.5-20,21.9-31.6,31.1
				c-2.9,2.3-6.9,2.9-10.4,1.5c-16.6-6.5-31.5-16.5-43.7-29c-2.5-2.5-3.6-6.1-2.8-9.6c3.3-15,9.3-29.3,17.7-42.1
				c0.7-1.1,0.2-2.6-1.1-3c-1.6-0.5-3.1-1-4.5-1.5c-0.8-0.3-1.8,0-2.3,0.7c-7,10.9-12.4,22.8-16.1,35.2c-0.9,3-4.8,3.6-6.5,1
				C91,240,83.7,219.8,82,198c-0.3-3.4-0.4-6.8-0.4-10.2c0-0.4,0-0.8,0-1.1c0.1-15.9,6.1-31.1,16.5-42.8c1.7-2,3.6-3.8,5.6-5.6
				c18.1-16,40.5-27.3,65.1-32.1c0.7-3,1.6-6,2.5-9.3c-24.2,4-46.5,14-65.2,28.2c-1.8,1.3-4-0.9-2.6-2.6
				c22.8-28.5,57.9-46.6,97.3-46.2c0,0,0,0,0,0c4.1,4.5,7.5,9.6,10.2,15.3c0.6,1.4,1.2,2.8,1.8,4.2c-5.6-0.6-11.3-1-17-1
				c-2.7,0-5.4,0.1-8,0.2c0.8,2.8,1.5,5.6,2.1,8.6c2-0.1,3.9-0.1,5.9-0.1c6.7,0,13.2,0.5,19.7,1.4c0.5,2.5,0.9,5.1,1.1,7.7
				c0.1,0.7,0.6,1.3,1.3,1.5c2.8,0.7,5.3,1.7,7.6,2.8c0-3.5-0.3-7-0.8-10.4c7.5,1.6,14.8,3.8,21.8,6.5c1.1,7,1.9,14.1,2.3,21.3
				c0.1,1.1,0.9,2.1,2,2.3l5.2,0.8c0.8,0.1,1.6-0.5,1.5-1.4c-0.3-6.4-0.9-12.7-1.7-19c5.8,2.8,11.3,5.9,16.6,9.4
				c-0.7,3.8-1,7.6-1,11.3c0,0.9,0.4,1.6,1.1,2.1c0.3,0.2,0.7,0.4,1.1,0.5l5.3,0.9c0.4,0.1,0.8-0.1,1.1-0.4c0.1-0.2,0.2-0.4,0.2-0.7
				c-0.1-2.6-0.1-5.3,0.2-7.9c4.2,3.2,8.3,6.7,12.1,10.4c11.8,11.3,21.6,24.7,28.8,39.5C321.9,187.6,322.3,193.3,322.3,199.2
				C322.3,199.2,322.3,199.2,322.3,199.2z"/>
		</g>
		<g>
			<path class="st1" d="M227.5,191.5l0.2-19.4c0-9.1-9.5-10.7-16.5-10.5c4.7-1.6,10.4-4.2,14.4-8.6c4.3-4,7.4-9.5,6.8-17.4
				c-0.9-13.2-17.4-19.8-44.7-17.1c-0.4,0-0.9,0.1-1.3,0.1c-1.3-9.7-3.3-19.2-6.3-27.9l-1.4,1.3c-3.6,11.3-5.8,20.3-7.1,28.6
				c-16.3,2.8-27.7,6.6-27.7,6.6l-1.3,1.3c0,0,13.2-1.2,28.2-1c-1.7,17.1,0,33.3,0,64c-24.3-0.7-45.6,3.4-50.8,9.8
				c-1.7,1.4-2.6,3-2.6,4.6c0.3,7.4,22.4,14.3,53.4,16.9l1.3,42.2l1.3-1.3l2.2-28.6c0-0.5,0.1-0.9,0.2-1.2c0.7,0.1,1.3,0.9,1.3,2.4
				l1,37.7l1.4-1.3l2.3-30.6c0-0.7,0.1-1.2,0.2-1.7c0.7,0.1,1.3,1.1,1.2,2.8l1.1,39.3l1.3-1.3l1.9-57.1c3.6,0.1,7.2,0.2,10.9,0.2
				c3.9,0,7.8-0.1,11.6-0.2l1.9,59.6l1.3-1.3l1.6-31.2c0-0.6,0.1-1.1,0.2-1.6c0.6,0.1,1.2,1.1,1.2,2.7l1.6,43.7l1.3-1.3l1.6-37.8
				c0-0.5,0.1-1,0.2-1.4c0.8,0,1.6,0.9,1.6,2.7l1.3,50.1l1.3-1.4l2-83.8c26.5-2.3,46.7-7.7,51.7-13.8c1.7-1.4,2.5-2.8,2.5-4.3
				C281,196.4,256.4,190.1,227.5,191.5 M170.6,213.9c-21.3-2.1-35.6-6.4-35.6-11.8c0-0.4,0.1-0.8,0.3-1.1c5-3.5,20.3-5.7,35.6-8
				c0,6-0.1,12.5-0.3,19.7L170.6,213.9z M213.9,140.7c0.8,6-0.9,10.6-4,14c-5.6,5-14.2,7.3-21.3,8.4c0.1-11.4,0-23.1-1-34.7
				C201.2,129.8,212.9,133.3,213.9,140.7 M209.9,215.1c-3.3,0.1-6.7,0.2-10.2,0.2c-4.1,0-8.1-0.1-12-0.2l0.2-4.8
				c-0.4-12.3,0.4-27.7,0.6-44.1c10,1.2,22,4,21.8,11L209.9,215.1z M262.8,205.6c-5,3.9-18.1,6.9-35.5,8.5l0.2-20.9
				c19.9,2.6,36.1,5.5,36.1,10.3C263.6,204.2,263.3,204.9,262.8,205.6"/>
			<path class="st5" d="M281.4,204.6c-0.4-8.2-24.9-14.5-53.8-13.1l0.2-19.4c0-12-16.5-10.9-22.1-10.1c6.5-1.2,28.2-6.6,26.8-26.4
				c-0.9-13.2-17.4-19.8-44.7-17.1c-0.4,0-0.9,0.1-1.3,0.1c-1.3-9.7-3.3-19.2-6.3-27.9c-3.8,11.8-6,21.1-7.2,29.7
				c-16.9,2.8-28.9,6.8-28.9,6.8s13.2-1.2,28.2-1c-1.7,17.3,0.1,33.8,0,65.4c-28.7-1-53.7,4.6-53.4,13.1
				c0.3,7.4,22.3,14.3,53.4,16.9l1.3,42.2l2.2-28.6c0.1-3.5,2.8-3.2,2.8-0.2l1,37.7l2.3-30.6c0-4.1,2.9-3.9,2.8-0.2l1.1,39.3
				l1.9-58.5c4,0.1,8.1,0.2,12.2,0.2c3.9,0,7.8-0.1,11.6-0.2l1.9,59.6l1.6-31.2c0-4,2.7-3.8,2.7-0.2l1.6,43.7l1.6-37.8
				c0.1-3.7,3.1-3.5,3.2,0l1.3,50.1l2-85v-0.1C258.6,218.9,281.4,212,281.4,204.6 M215.2,139.4c2.2,16.5-14.6,21.9-26.7,23.7
				c0.1-11.8-0.1-24.2-1.2-36.2C201.7,128.2,214.2,131.7,215.2,139.4 M135,202.1c0-5,18.6-7.7,37.2-10.5c0,6-0.1,12.5-0.3,19.7
				l0.1,2.7C150,212.1,135,207.7,135,202.1 M187.7,215l0.2-4.8c-0.4-12.6,0.4-28.6,0.7-45.6c10.2,1,23.3,3.8,23.1,11.1l-0.4,39.3
				c-3.7,0.1-7.6,0.2-11.6,0.2C195.6,215.2,191.6,215.2,187.7,215 M227.3,214.1l0.3-22.4c20.5,2.6,37.4,5.6,37.4,10.5
				C264.9,207.7,249.6,212.1,227.3,214.1"/>
		</g>
		<path class="st0" d="M56.8,162.8c-2.6,0.9-5.1,1.7-7.6,2.6c-1.6,0.6-3,2.4-3,4.1c0,8.8,0,17.5,0,26.3c0,1.7,1.3,2.6,3,2
			c2.5-0.9,5.1-1.8,7.6-2.6c1.6-0.5,3-2.4,3-4c0-8.8,0-17.5,0-26.3C59.7,163.1,58.4,162.2,56.8,162.8z M54.8,190.8
			c-1.2,0.4-2.5,0.9-3.7,1.3c0-7.4,0-14.9,0-22.3c1.2-0.4,2.5-0.9,3.7-1.3C54.8,175.9,54.8,183.3,54.8,190.8z M133.7,144.4
			c-2.6,0.4-5.3,0.8-7.9,1.2c-1.7,0.3-3.1,1.9-3.1,3.6c0,8.8,0,17.5,0,26.3c0,1.7,1.4,2.8,3.1,2.5c2.6-0.4,5.3-0.9,7.9-1.2
			c1.7-0.2,3.1-1.8,3.1-3.5c0-8.8,0-17.5,0-26.3C136.7,145.3,135.4,144.1,133.7,144.4z M131.7,172c-1.3,0.2-2.6,0.4-3.9,0.6
			c0-7.4,0-14.9,0-22.3c1.3-0.2,2.6-0.4,3.9-0.6C131.7,157.1,131.7,164.6,131.7,172z M74.3,157.3c1.7-0.5,3.3-1,5-1.4
			c0,9.8,0,19.6,0,29.3c0,1.7-1.4,3.4-3,3.9c-2.6,0.7-5.2,1.5-7.7,2.3c-1.6,0.5-3-0.4-3-2.1c0-9.8,0-19.6,0-29.3
			c1.7-0.5,3.3-1,5-1.5c0,9.1,0,18.2,0,27.3c1.3-0.4,2.5-0.7,3.8-1.1C74.3,175.5,74.3,166.4,74.3,157.3z M35.6,170.4
			c1.6-0.6,3.2-1.3,4.9-1.9c0,10.8,0,21.6,0,32.4c-1.6,0.6-3.3,1.2-4.9,1.9c0-4.6,0-9.1,0-13.7c-1.1,0.4-2.3,0.9-3.4,1.3
			c0,4.6,0,9.1,0,13.7c-1.6,0.6-3.2,1.3-4.8,2c0-10.8,0-21.6,0-32.4c1.6-0.7,3.2-1.3,4.8-2c0,4.6,0,9.1,0,13.7
			c1.1-0.5,2.3-0.9,3.4-1.3C35.6,179.6,35.6,175,35.6,170.4z M103.9,149.8c4.6-1,9.3-1.9,13.9-2.8c0,1.7,0,3.4,0,5
			c-1.5,0.3-3,0.6-4.4,0.8c0,9.1,0,18.2,0,27.3c-1.7,0.3-3.4,0.7-5.1,1c0-9.1,0-18.2,0-27.3c-1.5,0.3-2.9,0.6-4.4,0.9
			C103.9,153.2,103.9,151.5,103.9,149.8z M156.1,141.6c0,10.8,0,21.6,0,32.4c-1.7,0.2-3.4,0.3-5.1,0.5c0-1.9,0-3.8,0-5.7
			c-1.2-3.4-2.4-6.7-3.6-10.1c0,5.4,0,10.8,0,16.2c-1.7,0.2-3.4,0.4-5.1,0.6c0-10.8,0-21.6,0-32.4c1.7-0.2,3.3-0.4,5-0.6
			c1.2,3.5,2.4,6.9,3.7,10.4c0-3.6,0-7.2,0-10.8C152.7,142,154.4,141.8,156.1,141.6z M99,153.9c0,1.3,0,2.5,0,3.8
			c-1.7,0.4-3.4,0.8-5,1.2c0-0.6,0-1.2,0-1.8c-1.3,0.3-2.5,0.6-3.8,0.9c0,2.2,0,4.5,0,6.7c2.4,1.1,4.8,2.3,7.3,3.5
			c1.2,0.6,1.6,1.6,1.6,3c0,3,0,6,0,9c0,1.7-1.4,3.3-3,3.7c-2.6,0.6-5.2,1.3-7.8,1.9c-1.7,0.4-3-0.6-3-2.3c0-1.3,0-2.5,0-3.8
			c1.7-0.4,3.3-0.9,5-1.3c0,0.6,0,1.2,0,1.8c1.3-0.3,2.5-0.6,3.8-0.9c0-2.2,0-4.5,0-6.7c-2.4-1.2-4.8-2.3-7.2-3.4
			c-1.2-0.5-1.6-1.6-1.6-3c0-3,0-6,0-9c0-1.7,1.4-3.4,3-3.8c2.6-0.7,5.2-1.3,7.8-1.9C97.6,151.2,99,152.3,99,153.9z M274.1,145.8
			c-2.6-0.4-5.3-0.9-7.9-1.3c-1.7-0.3-3.1,0.9-3.1,2.6c0,8.8,0,17.5,0,26.3c0,1.7,1.4,3.2,3.1,3.5c2.6,0.4,5.3,0.8,7.9,1.3
			c1.7,0.3,3.1-0.8,3.1-2.5c0-8.8,0-17.5,0-26.3C277.2,147.7,275.8,146.1,274.1,145.8z M272.1,172.8c-1.3-0.2-2.6-0.4-3.9-0.6
			c0-7.4,0-14.9,0-22.3c1.3,0.2,2.6,0.4,3.9,0.6C272.1,157.9,272.1,165.4,272.1,172.8z M340.3,162.2c4.5,1.5,9,3.1,13.5,4.7
			c0,1.7,0,3.4,0,5c-1.4-0.5-2.9-1-4.3-1.5c0,9.1,0,18.2,0,27.3c-1.6-0.6-3.3-1.1-4.9-1.7c0-9.1,0-18.2,0-27.3
			c-1.4-0.5-2.9-1-4.3-1.4C340.3,165.5,340.3,163.9,340.3,162.2z M366.6,178.6c0-0.6,0-1.2,0-1.8c-1.2-0.5-2.5-1-3.7-1.5
			c0,2.2,0,4.5,0,6.7c2.3,2.7,4.7,5.3,7,8c1.1,1.3,1.5,2.6,1.5,4c0,3,0,6,0,9c0,1.7-1.3,2.5-2.9,1.8c-2.5-1-5-2-7.6-3
			c-1.6-0.6-2.9-2.5-2.9-4.2c0-1.3,0-2.5,0-3.8c1.6,0.6,3.3,1.2,4.9,1.9c0,0.6,0,1.2,0,1.8c1.2,0.5,2.5,1,3.7,1.5c0-2.2,0-4.5,0-6.7
			c-2.3-2.7-4.7-5.3-7-8c-1.1-1.3-1.5-2.6-1.5-4c0-3,0-6,0-9c0-1.7,1.3-2.5,2.9-1.9c2.5,1,5,2,7.6,3c1.6,0.7,2.9,2.6,2.9,4.2
			c0,1.3,0,2.5,0,3.8C369.9,179.9,368.3,179.2,366.6,178.6z M316.9,155.2c-1.7,4.9-3.5,9.9-5.2,14.8c1.7,5.8,3.5,11.7,5.2,17.6
			c-1.8-0.5-3.5-0.9-5.3-1.4c-1.4-4.7-2.8-9.3-4.1-13.9c0,4.3,0,8.6,0,12.9c-1.7-0.4-3.3-0.8-5-1.2c0-10.8,0-21.6,0-32.4
			c1.7,0.4,3.4,0.8,5,1.2c0,4.3,0,8.6,0,12.9c1.4-4,2.8-7.9,4.1-11.8C313.4,154.2,315.2,154.7,316.9,155.2z M296.8,153.2
			c0,1.3,0,2.6,0,3.9c-1.7-0.4-3.4-0.7-5-1.1c0-0.6,0-1.2,0-1.9c-1.3-0.3-2.6-0.5-3.8-0.8c0,7.4,0,14.9,0,22.3
			c1.3,0.3,2.6,0.5,3.8,0.8c0-0.6,0-1.1,0-1.7c1.7,0.4,3.4,0.7,5,1.1c0,1.2,0,2.4,0,3.7c0,1.7-1.4,2.7-3,2.4
			c-2.6-0.6-5.2-1.1-7.9-1.6c-1.7-0.3-3.1-2-3.1-3.6c0-8.8,0-17.5,0-26.3c0-1.7,1.4-2.8,3.1-2.4c2.6,0.5,5.2,1.1,7.9,1.6
			C295.4,149.9,296.8,151.6,296.8,153.2z M256.9,158.9c0-4.2,0-8.4,0-12.6c0-1.7-1.4-3.2-3.1-3.4c-3.7-0.4-7.3-0.8-11-1.2v0
			c0,10.8,0,21.6,0,32.4c1.7,0.2,3.4,0.3,5.1,0.5c0-4.6,0-9.1,0-13.7c0.7,0.1,1.4,0.2,2.1,0.2c0.7,4.6,1.5,9.3,2.2,13.9
			c1.7,0.2,3.4,0.4,5.2,0.6c-0.8-4.7-1.5-9.5-2.3-14.2C256.2,161.1,256.9,160.1,256.9,158.9z M251.8,156.3c-1.3-0.2-2.6-0.3-3.9-0.4
			c0-2.9,0-5.8,0-8.6c1.3,0.1,2.6,0.3,3.9,0.4C251.8,150.5,251.8,153.4,251.8,156.3z M322.5,156.7c4.5,1.3,9,2.7,13.5,4.1
			c0,1.7,0,3.4,0,5c-2.8-0.9-5.7-1.8-8.6-2.6c0,2.9,0,5.8,0,8.6c2.1,0.6,4.2,1.3,6.4,1.9c0,1.7,0,3.4,0,5c-2.1-0.7-4.2-1.3-6.4-1.9
			c0,2.9,0,5.8,0,8.6c2.9,0.8,5.7,1.7,8.6,2.6c0,1.7,0,3.4,0,5c-4.5-1.4-9-2.8-13.5-4.1C322.5,178.3,322.5,167.5,322.5,156.7z"/>
	</g>
</g>
</svg>
